<svg xmlns="http://www.w3.org/2000/svg" xmlns:xlink="http://www.w3.org/1999/xlink" x="0px" y="0px"
	 width="100%" viewBox="0 0 2135 2042" enable-background="new 0 0 2135 2042" xml:space="preserve">
<path fill="#FFFFFF" opacity="1.000000" stroke="none" 
	d="
M1154.000000,2044.000000 
	C769.379150,2044.000000 385.758331,2044.000000 2.068742,2044.000000 
	C2.068742,1363.460449 2.068742,682.920959 2.068742,2.190698 
	C713.787781,2.190698 1425.575684,2.190698 2137.681641,2.190698 
	C2137.681641,682.666565 2137.681641,1363.333252 2137.681641,2044.000000 
	C1810.253784,2044.000000 1482.626831,2044.000000 1154.000000,2044.000000 
M1313.294189,1829.692383 
	C1316.424316,1831.580811 1319.525757,1833.518555 1322.689209,1835.349365 
	C1343.094849,1847.158569 1363.506836,1858.957275 1383.931519,1870.733643 
	C1402.634399,1881.516968 1421.538086,1891.967529 1439.985596,1903.170288 
	C1448.208618,1908.164185 1454.904297,1907.656860 1462.751953,1902.428711 
	C1472.957275,1895.630249 1483.890015,1889.922363 1494.523071,1883.768066 
	C1514.068237,1872.456055 1533.632568,1861.177002 1553.171997,1849.854736 
	C1575.871948,1836.701294 1598.541992,1823.496094 1621.246582,1810.350586 
	C1641.362671,1798.703735 1661.501587,1787.095581 1681.643188,1775.492676 
	C1700.925781,1764.384521 1720.217163,1753.291992 1739.518921,1742.217041 
	C1759.108154,1730.977051 1778.755615,1719.838013 1798.303589,1708.527100 
	C1825.607910,1692.728027 1852.623413,1676.410645 1880.251831,1661.203857 
	C1887.873413,1657.008789 1890.192871,1652.502319 1890.170288,1644.172607 
	C1889.899292,1544.522095 1889.995117,1444.870605 1889.994995,1345.219360 
	C1889.994995,1282.895752 1889.935791,1220.571899 1890.084229,1158.248657 
	C1890.099609,1151.765991 1889.019165,1147.453735 1882.411133,1143.886597 
	C1859.916138,1131.743530 1837.911865,1118.686646 1815.789795,1105.859009 
	C1783.617065,1087.203369 1751.560303,1068.347290 1719.350952,1049.755249 
	C1686.846069,1030.992676 1654.141479,1012.575684 1621.658569,993.775330 
	C1581.710815,970.654480 1542.124756,946.895325 1501.848755,924.366150 
	C1493.623657,919.765259 1491.839600,914.924927 1491.851685,906.502930 
	C1492.058228,762.192200 1492.000000,617.881165 1491.999268,473.570190 
	C1491.999268,470.903961 1491.895386,468.233551 1492.010986,465.572510 
	C1492.173950,461.824371 1490.621094,459.418060 1487.262939,457.598785 
	C1480.257935,453.803986 1473.455078,449.637329 1466.553955,445.649750 
	C1443.550293,432.357971 1420.547974,419.063690 1397.529541,405.797607 
	C1378.249146,394.685852 1358.939087,383.625702 1339.656494,372.517883 
	C1319.514771,360.915192 1299.383423,349.294373 1279.260010,337.660187 
	C1259.710083,326.357635 1240.171143,315.036133 1220.635986,303.708160 
	C1198.227783,290.714172 1175.839600,277.685120 1153.422607,264.706360 
	C1133.018799,252.893234 1112.603760,241.098999 1092.161987,229.351547 
	C1080.928711,222.895966 1069.646973,216.524246 1058.349487,210.181534 
	C1055.412964,208.532944 1052.732544,207.589340 1049.121460,209.758545 
	C1031.475586,220.358536 1013.622620,230.614990 995.806885,240.930771 
	C973.387756,253.912064 950.948059,266.858093 928.490295,279.772552 
	C908.911865,291.031250 889.279968,302.197052 869.701294,313.455322 
	C849.550842,325.042358 829.430664,336.682281 809.307312,348.316406 
	C789.757202,359.619141 770.223572,370.950226 750.676086,382.257416 
	C727.679016,395.559998 704.678101,408.856018 681.672607,422.144043 
	C662.117126,433.439392 642.746277,445.077271 622.890625,455.818329 
	C615.609497,459.757141 613.835693,464.636658 613.847839,472.410156 
	C614.061462,609.388550 614.002502,746.367493 614.002441,883.346252 
	C614.002441,892.678162 613.713501,902.022156 614.105164,911.337585 
	C614.360474,917.411987 612.409424,921.005859 606.739502,923.866577 
	C596.080444,929.244751 585.902832,935.581238 575.554138,941.569519 
	C556.009094,952.879089 536.516174,964.278931 516.942688,975.538818 
	C497.364655,986.801208 477.657227,997.839233 458.111359,1009.156677 
	C435.411987,1022.300171 412.892944,1035.755371 390.173828,1048.864258 
	C365.719238,1062.974365 341.075470,1076.756348 316.601746,1090.833618 
	C287.528748,1107.556396 258.643982,1124.608887 229.465958,1141.145020 
	C221.584579,1145.611572 217.704681,1150.490601 217.728867,1160.475098 
	C218.114563,1319.782837 218.000641,1479.091797 218.000626,1638.400391 
	C218.000626,1656.441895 218.132645,1656.205566 233.854324,1664.988037 
	C258.502106,1678.756958 283.016815,1692.767700 307.466949,1706.885620 
	C334.783508,1722.658691 361.912201,1738.757202 389.220093,1754.545532 
	C417.111237,1770.671143 445.174347,1786.499268 473.062958,1802.629150 
	C500.368286,1818.421997 527.504700,1834.506592 554.795410,1850.324951 
	C585.539917,1868.145020 616.455261,1885.671875 647.108459,1903.646851 
	C654.251526,1907.835571 660.108765,1907.796509 667.286804,1903.460449 
	C690.873413,1889.212036 714.782166,1875.492554 738.664795,1861.739502 
	C771.188904,1843.010254 803.854187,1824.525757 836.365295,1805.773804 
	C873.760864,1784.204590 911.064575,1762.475586 948.388062,1740.781372 
	C967.908875,1729.434937 987.369995,1717.985718 1006.889221,1706.636597 
	C1020.095581,1698.957886 1033.352417,1691.366089 1046.595093,1683.750122 
	C1050.684814,1681.398193 1054.394897,1679.622314 1059.434937,1682.658936 
	C1076.213867,1692.768433 1093.319336,1702.335449 1110.272461,1712.157349 
	C1147.914673,1733.965698 1185.532471,1755.816284 1223.175415,1777.623413 
	C1252.771973,1794.769043 1282.391357,1811.875244 1313.294189,1829.692383 
z"/>
<path fill="#F6F4F6" opacity="1.000000" stroke="none" 
	d="
M1312.647461,1829.345703 
	C1282.391357,1811.875244 1252.771973,1794.769043 1223.175415,1777.623413 
	C1185.532471,1755.816284 1147.914673,1733.965698 1110.272461,1712.157349 
	C1093.319336,1702.335449 1076.213867,1692.768433 1059.434937,1682.658936 
	C1054.394897,1679.622314 1050.684814,1681.398193 1046.595093,1683.750122 
	C1033.352417,1691.366089 1020.095581,1698.957886 1006.889221,1706.636597 
	C987.369995,1717.985718 967.908875,1729.434937 948.388062,1740.781372 
	C911.064575,1762.475586 873.760864,1784.204590 836.365295,1805.773804 
	C803.854187,1824.525757 771.188904,1843.010254 738.664795,1861.739502 
	C714.782166,1875.492554 690.873413,1889.212036 667.286804,1903.460449 
	C660.108765,1907.796509 654.251526,1907.835571 647.108459,1903.646851 
	C616.455261,1885.671875 585.539917,1868.145020 554.795410,1850.324951 
	C527.504700,1834.506592 500.368286,1818.421997 473.062958,1802.629150 
	C445.174347,1786.499268 417.111237,1770.671143 389.220093,1754.545532 
	C361.912201,1738.757202 334.783508,1722.658691 307.466949,1706.885620 
	C283.016815,1692.767700 258.502106,1678.756958 233.854324,1664.988037 
	C218.132645,1656.205566 218.000626,1656.441895 218.000626,1638.400391 
	C218.000641,1479.091797 218.114563,1319.782837 217.728867,1160.475098 
	C217.704681,1150.490601 221.584579,1145.611572 229.465958,1141.145020 
	C258.643982,1124.608887 287.528748,1107.556396 316.601746,1090.833618 
	C341.075470,1076.756348 365.719238,1062.974365 390.173828,1048.864258 
	C412.892944,1035.755371 435.411987,1022.300171 458.111359,1009.156677 
	C477.657227,997.839233 497.364655,986.801208 516.942688,975.538818 
	C536.516174,964.278931 556.009094,952.879089 575.554138,941.569519 
	C585.902832,935.581238 596.080444,929.244751 606.739502,923.866577 
	C612.409424,921.005859 614.360474,917.411987 614.105164,911.337585 
	C613.713501,902.022156 614.002441,892.678162 614.002441,883.346252 
	C614.002502,746.367493 614.061462,609.388550 613.847839,472.410156 
	C613.835693,464.636658 615.609497,459.757141 622.890625,455.818329 
	C642.746277,445.077271 662.117126,433.439392 681.672607,422.144043 
	C704.678101,408.856018 727.679016,395.559998 750.676086,382.257416 
	C770.223572,370.950226 789.757202,359.619141 809.307312,348.316406 
	C829.430664,336.682281 849.550842,325.042358 869.701294,313.455322 
	C889.279968,302.197052 908.911865,291.031250 928.490295,279.772552 
	C950.948059,266.858093 973.387756,253.912064 995.806885,240.930771 
	C1013.622620,230.614990 1031.475586,220.358536 1049.121460,209.758545 
	C1052.732544,207.589340 1055.412964,208.532944 1058.349487,210.181534 
	C1069.646973,216.524246 1080.928711,222.895966 1092.161987,229.351547 
	C1112.603760,241.098999 1133.018799,252.893234 1153.422607,264.706360 
	C1175.839600,277.685120 1198.227783,290.714172 1220.635986,303.708160 
	C1240.171143,315.036133 1259.710083,326.357635 1279.260010,337.660187 
	C1299.383423,349.294373 1319.514771,360.915192 1339.656494,372.517883 
	C1358.939087,383.625702 1378.249146,394.685852 1397.529541,405.797607 
	C1420.547974,419.063690 1443.550293,432.357971 1466.553955,445.649750 
	C1473.455078,449.637329 1480.257935,453.803986 1487.262939,457.598785 
	C1490.621094,459.418060 1492.173950,461.824371 1492.010986,465.572510 
	C1491.895386,468.233551 1491.999268,470.903961 1491.999268,473.570190 
	C1492.000000,617.881165 1492.058228,762.192200 1491.851685,906.502930 
	C1491.839600,914.924927 1493.623657,919.765259 1501.848755,924.366150 
	C1542.124756,946.895325 1581.710815,970.654480 1621.658569,993.775330 
	C1654.141479,1012.575684 1686.846069,1030.992676 1719.350952,1049.755249 
	C1751.560303,1068.347290 1783.617065,1087.203369 1815.789795,1105.859009 
	C1837.911865,1118.686646 1859.916138,1131.743530 1882.411133,1143.886597 
	C1889.019165,1147.453735 1890.099609,1151.765991 1890.084229,1158.248657 
	C1889.935791,1220.571899 1889.994995,1282.895752 1889.994995,1345.219360 
	C1889.995117,1444.870605 1889.899292,1544.522095 1890.170288,1644.172607 
	C1890.192871,1652.502319 1887.873413,1657.008789 1880.251831,1661.203857 
	C1852.623413,1676.410645 1825.607910,1692.728027 1798.303589,1708.527100 
	C1778.755615,1719.838013 1759.108154,1730.977051 1739.518921,1742.217041 
	C1720.217163,1753.291992 1700.925781,1764.384521 1681.643188,1775.492676 
	C1661.501587,1787.095581 1641.362671,1798.703735 1621.246582,1810.350586 
	C1598.541992,1823.496094 1575.871948,1836.701294 1553.171997,1849.854736 
	C1533.632568,1861.177002 1514.068237,1872.456055 1494.523071,1883.768066 
	C1483.890015,1889.922363 1472.957275,1895.630249 1462.751953,1902.428711 
	C1454.904297,1907.656860 1448.208618,1908.164185 1439.985596,1903.170288 
	C1421.538086,1891.967529 1402.634399,1881.516968 1383.931519,1870.733643 
	C1363.506836,1858.957275 1343.094849,1847.158569 1322.689209,1835.349365 
	C1319.525757,1833.518555 1316.424316,1831.580811 1312.647461,1829.345703 
M1053.769653,1631.697388 
	C1054.979370,1632.207397 1056.260620,1632.593872 1057.388916,1633.244995 
	C1160.650757,1692.850464 1263.899658,1752.478271 1367.152588,1812.099365 
	C1394.822876,1828.076904 1422.502319,1844.038940 1450.545166,1860.220093 
	C1454.422852,1858.038330 1458.178345,1855.972290 1461.890137,1853.830200 
	C1544.099854,1806.385742 1626.308350,1758.938965 1708.509155,1711.479370 
	C1752.349731,1686.167480 1796.197632,1660.868164 1839.957397,1635.417236 
	C1842.819214,1633.752686 1847.321045,1633.333740 1847.622314,1626.561646 
	C1847.622314,1475.337891 1847.622314,1324.114136 1847.622314,1172.868164 
	C1844.678345,1171.081299 1842.154785,1169.483032 1839.570312,1167.990356 
	C1712.721069,1094.726929 1585.869141,1021.468018 1458.995239,948.247314 
	C1456.143188,946.601379 1453.032837,945.402832 1449.980713,943.552429 
	C1449.980713,943.552429 1450.048218,943.109985 1450.412598,941.108948 
	C1450.447632,938.110779 1450.513550,935.112671 1450.513550,932.114502 
	C1450.518677,786.841003 1450.435669,641.567322 1450.727539,496.294434 
	C1450.744629,487.794830 1448.062134,483.426758 1440.766846,479.245270 
	C1354.374146,429.727692 1268.199585,379.829865 1181.964478,330.037354 
	C1141.586548,306.722961 1101.220337,283.388519 1060.777100,260.188019 
	C1058.232300,258.728149 1055.064209,258.355103 1050.781982,257.874756 
	C921.841797,332.288422 792.930603,406.752411 663.868835,480.954529 
	C657.948914,484.358093 656.478455,488.190033 656.484985,494.478546 
	C656.637146,640.464478 656.604187,786.450623 656.679626,932.436707 
	C656.681458,935.995911 657.527283,939.554810 658.011475,944.311951 
	C657.880310,945.099548 657.749146,945.887207 656.354858,945.704224 
	C653.086121,946.956726 649.578430,947.794678 646.582886,949.521118 
	C520.183350,1022.376709 393.828033,1095.309204 267.480347,1168.254761 
	C264.942596,1169.719971 262.559143,1171.452393 260.391815,1172.871460 
	C260.225708,1174.493408 260.035767,1175.482422 260.035645,1176.471558 
	C260.016144,1326.101318 260.003632,1475.731079 260.071442,1625.360840 
	C260.072418,1627.472778 261.087860,1629.584229 262.772766,1632.619751 
	C263.622192,1633.141724 264.459717,1633.684326 265.322784,1634.182617 
	C393.595673,1708.247925 521.869812,1782.311035 650.150818,1856.362183 
	C652.419983,1857.672241 654.773315,1858.836304 657.106567,1860.078735 
	C659.975403,1858.476318 662.602417,1857.051392 665.189758,1855.557617 
	C782.222046,1787.984741 899.257507,1720.417603 1016.270325,1652.811157 
	C1028.363525,1645.823975 1040.319946,1638.599731 1053.769653,1631.697388 
z"/>
<path fill="#FEFEFF" opacity="1.000000" stroke="none" 
	d="
M1450.048218,943.109985 
	C1450.048218,943.109985 1449.980713,943.552429 1450.158203,944.705078 
	C1450.348022,1097.871582 1450.360596,1249.885620 1449.725342,1402.198975 
	C1319.256714,1477.483521 1189.438354,1552.473022 1059.594238,1627.417480 
	C1057.339478,1628.718872 1054.771240,1629.476807 1051.803467,1629.991089 
	C1046.965698,1626.959351 1042.695190,1624.388306 1038.378906,1621.896118 
	C911.407288,1548.581665 784.431152,1475.275146 657.370728,1401.035278 
	C657.245483,1398.439453 657.169922,1396.775757 657.169861,1395.111938 
	C657.164001,1248.282349 657.161438,1101.452759 657.182251,954.623169 
	C657.182617,951.973694 657.466431,949.324280 657.618042,946.674805 
	C657.749146,945.887207 657.880310,945.099548 658.641479,943.351074 
	C790.755981,866.509216 922.240417,790.628235 1054.385742,715.125977 
	C1149.233154,769.844116 1243.408325,824.203125 1337.611938,878.513062 
	C1375.058350,900.101501 1412.567627,921.580933 1450.048218,943.109985 
M831.000427,1235.425415 
	C871.962463,1234.915039 912.942566,1234.988892 953.881409,1233.725708 
	C992.883179,1232.522339 1020.255005,1210.131958 1030.773193,1172.549194 
	C1041.334351,1134.813599 1026.616699,1095.007324 985.898804,1079.884644 
	C984.282043,1079.284058 982.835022,1078.226807 980.926819,1077.170898 
	C982.432129,1076.126953 983.220581,1075.527588 984.057861,1075.006836 
	C1011.642761,1057.849731 1024.047363,1030.393555 1018.270813,999.260132 
	C1012.870605,970.155029 989.393799,947.018860 958.964355,941.881348 
	C947.193665,939.893982 935.141052,938.834534 923.203003,938.713135 
	C880.232971,938.275879 837.257019,938.412781 794.283264,938.374084 
	C793.039612,938.372986 791.795593,938.834229 790.514709,939.087219 
	C790.514709,1037.886963 790.514709,1136.275513 790.514709,1235.425293 
	C803.793762,1235.425293 816.397339,1235.425293 831.000427,1235.425415 
M1148.593872,1140.259766 
	C1162.424927,1125.911499 1176.256104,1111.563110 1190.679932,1096.599854 
	C1193.049194,1100.528320 1194.944336,1103.549927 1196.723389,1106.638550 
	C1219.995361,1147.041626 1243.363892,1187.389893 1266.381104,1227.937500 
	C1269.597778,1233.604126 1273.081787,1235.858154 1279.691284,1235.607910 
	C1294.335938,1235.053589 1309.016113,1235.435425 1323.681763,1235.435425 
	C1330.886475,1235.435425 1338.091187,1235.435303 1347.419312,1235.435303 
	C1308.184814,1173.964966 1269.993530,1114.129028 1231.729614,1054.179199 
	C1268.279297,1015.655457 1304.124146,977.874817 1341.657593,938.314209 
	C1336.107666,938.314209 1333.234741,938.314209 1330.361816,938.314209 
	C1310.696411,938.314270 1291.026489,938.555725 1271.368286,938.178040 
	C1264.836304,938.052612 1260.327026,939.936096 1255.901611,944.892212 
	C1221.272217,983.674438 1186.358276,1022.202698 1151.511963,1060.791016 
	C1149.406250,1063.122803 1147.127808,1065.298462 1143.435303,1069.075317 
	C1143.435303,1056.314575 1143.435425,1045.760864 1143.435425,1035.207153 
	C1143.435425,1024.541138 1143.435425,1013.875183 1143.435425,1003.209229 
	C1143.435425,992.209961 1143.482666,981.210388 1143.421753,970.211426 
	C1143.363647,959.705505 1143.708008,949.172852 1143.188110,938.858154 
	C1122.879150,938.858154 1103.998657,938.858154 1084.835938,938.858154 
	C1084.835938,1037.816895 1084.835938,1136.230225 1084.835938,1234.649170 
	C1104.624756,1234.649170 1123.727295,1234.649170 1143.435303,1234.649170 
	C1143.435303,1230.566528 1143.435303,1227.267700 1143.435425,1223.968872 
	C1143.435913,1200.303711 1143.483643,1176.638550 1143.394653,1152.973633 
	C1143.377930,1148.522217 1143.355225,1144.264648 1148.593872,1140.259766 
M1336.018433,1291.756348 
	C1336.216431,1288.472778 1334.748413,1286.806885 1331.381226,1286.816406 
	C1321.777588,1286.843628 1312.174072,1286.825928 1301.867432,1286.825928 
	C1298.476074,1299.548096 1295.400513,1311.749146 1291.949219,1323.843018 
	C1288.611694,1335.538574 1286.656860,1347.696655 1281.267090,1361.159912 
	C1274.216553,1334.884766 1267.847534,1311.149536 1261.468506,1287.376953 
	C1249.950806,1287.376953 1239.110107,1287.376953 1227.155273,1287.376953 
	C1227.177124,1325.063721 1227.119385,1362.151733 1227.198120,1399.351318 
	C1234.873291,1399.351318 1241.075928,1399.351318 1248.337891,1399.351318 
	C1248.337891,1372.657837 1248.337891,1346.464478 1248.337891,1320.271240 
	C1248.971191,1320.204224 1249.604614,1320.137207 1250.237915,1320.070312 
	C1257.031494,1346.615845 1263.825073,1373.161499 1270.508667,1399.277222 
	C1278.686157,1399.277222 1285.556274,1399.277222 1292.768066,1399.277222 
	C1299.469116,1372.970337 1306.050537,1347.132812 1312.631958,1321.295288 
	C1313.376099,1321.398926 1314.120361,1321.502686 1314.864502,1321.606323 
	C1314.864502,1347.459229 1314.864502,1373.312012 1314.864502,1399.159668 
	C1322.381836,1399.159668 1328.850586,1399.159668 1336.030273,1399.159668 
	C1336.030273,1363.502441 1336.030273,1328.561157 1336.018433,1291.756348 
M1067.816528,1369.142212 
	C1067.816528,1379.040894 1067.816528,1388.939453 1067.816528,1399.340332 
	C1075.713989,1399.340332 1082.519043,1399.340332 1089.906494,1399.340332 
	C1089.906494,1361.838501 1089.906494,1324.798950 1089.906494,1287.380005 
	C1082.406372,1287.380005 1075.574585,1287.380005 1067.640381,1287.380005 
	C1067.640381,1302.075439 1067.640381,1316.209961 1067.640381,1330.643799 
	C1052.471191,1330.643799 1038.408569,1330.643799 1023.587769,1330.643799 
	C1023.587769,1315.981079 1023.587769,1302.088013 1023.587769,1287.322510 
	C1015.458740,1286.995728 1008.082947,1285.549805 1000.977905,1288.141113 
	C1000.977905,1325.491211 1000.977905,1362.299194 1000.977905,1399.122803 
	C1008.793457,1399.122803 1015.903320,1399.122803 1024.100830,1399.122803 
	C1024.100830,1382.601807 1024.100830,1366.811523 1024.100830,1350.937622 
	C1039.038330,1350.937622 1052.860229,1350.937622 1067.816406,1350.937622 
	C1067.816406,1356.729614 1067.816406,1361.964966 1067.816528,1369.142212 
M938.654297,1289.624878 
	C937.067322,1289.140381 935.488647,1288.265015 933.892029,1288.230957 
	C913.954895,1287.805786 894.015320,1287.493530 874.075378,1287.219849 
	C873.572815,1287.213013 873.059631,1287.978516 872.517212,1288.411133 
	C872.517212,1325.207642 872.517212,1362.020508 872.517212,1399.220947 
	C880.163269,1399.220947 887.239319,1399.220947 895.542603,1399.220947 
	C895.542603,1385.139526 895.542603,1371.700317 895.542603,1357.525757 
	C901.044067,1357.525757 905.323608,1357.690308 909.585876,1357.489136 
	C916.887146,1357.145020 924.231201,1356.971436 931.460266,1356.002197 
	C942.493164,1354.522583 950.445190,1348.238403 955.267883,1338.325317 
	C963.962219,1320.454102 957.501770,1300.222656 938.654297,1289.624878 
M1116.521362,1311.837524 
	C1109.837524,1325.488403 1108.836914,1340.063477 1110.405762,1354.781128 
	C1113.080078,1379.867065 1129.337402,1397.379272 1152.784424,1401.293457 
	C1180.061890,1405.847046 1202.354248,1391.323242 1207.485229,1364.957886 
	C1200.741577,1362.807495 1193.901367,1360.626465 1186.607178,1358.300537 
	C1185.105225,1361.796753 1183.900757,1364.827271 1182.518921,1367.774414 
	C1178.327637,1376.712402 1171.398315,1381.768433 1161.396240,1381.901001 
	C1150.730835,1382.042480 1142.281494,1377.390747 1138.193848,1367.625244 
	C1131.646606,1351.983887 1131.611572,1335.722168 1137.797729,1319.935059 
	C1141.692749,1309.994751 1150.054199,1305.249390 1160.620850,1304.982666 
	C1171.256104,1304.714355 1179.246826,1309.175659 1183.701294,1319.191650 
	C1184.333008,1320.612427 1185.144775,1321.953247 1186.028564,1323.625000 
	C1193.476196,1321.735718 1200.441162,1319.968872 1207.702759,1318.126831 
	C1203.331299,1301.213257 1193.316650,1290.894531 1177.551270,1286.939453 
	C1154.951660,1281.269775 1130.061279,1287.365967 1116.521362,1311.837524 
M801.653259,1329.078857 
	C801.653259,1340.726440 801.609131,1352.374390 801.665710,1364.021729 
	C801.723022,1375.829224 801.412231,1387.658936 801.862183,1399.049683 
	C810.165710,1399.049683 816.945557,1399.049683 824.693481,1399.049683 
	C824.693481,1367.769531 824.693481,1337.311768 824.693481,1305.859009 
	C836.152039,1305.859009 846.634827,1305.859009 857.127441,1305.859009 
	C857.127441,1299.060425 857.127441,1293.306274 857.127441,1287.356201 
	C827.226318,1287.356201 798.079529,1287.356201 768.580383,1287.356201 
	C768.580383,1293.724243 768.580383,1299.511230 768.580383,1306.362061 
	C779.638672,1306.362061 790.123291,1306.362061 801.653137,1306.362061 
	C801.653137,1313.971191 801.653137,1320.542358 801.653259,1329.078857 
M959.700806,1399.828125 
	C965.580139,1399.828125 971.459412,1399.828125 977.409729,1399.828125 
	C977.409729,1391.934326 977.409729,1385.207886 977.409729,1378.585693 
	C970.099121,1378.585693 963.613892,1378.585693 955.635071,1378.585693 
	C956.457642,1386.044922 957.195068,1392.732178 959.700806,1399.828125 
z"/>
<path fill="#032B91" opacity="1.000000" stroke="none" 
	d="
M1053.724854,714.747253 
	C922.240417,790.628235 790.755981,866.509216 658.625488,942.752014 
	C657.527283,939.554810 656.681458,935.995911 656.679626,932.436707 
	C656.604187,786.450623 656.637146,640.464478 656.484985,494.478546 
	C656.478455,488.190033 657.948914,484.358093 663.868835,480.954529 
	C792.930603,406.752411 921.841797,332.288422 1051.970215,258.383728 
	C1053.390869,262.862427 1053.824951,266.832062 1053.826416,270.801819 
	C1053.863525,374.789459 1053.868408,478.777130 1053.849854,582.764771 
	C1053.842041,626.758911 1053.768555,670.753113 1053.724854,714.747253 
z"/>
<path fill="#1588DB" opacity="1.000000" stroke="none" 
	d="
M656.986450,946.189514 
	C657.466431,949.324280 657.182617,951.973694 657.182251,954.623169 
	C657.161438,1101.452759 657.164001,1248.282349 657.169861,1395.111938 
	C657.169922,1396.775757 657.245483,1398.439453 656.734558,1401.231445 
	C621.598938,1422.201904 586.975586,1441.976807 552.441467,1461.906372 
	C520.490234,1480.345337 488.670288,1499.011719 456.726410,1517.463501 
	C424.492401,1536.082764 392.167725,1554.544922 359.900208,1573.105957 
	C329.074310,1590.838135 298.253052,1608.578491 267.494476,1626.426758 
	C265.269562,1627.717896 263.572388,1629.918335 261.629822,1631.695923 
	C261.087860,1629.584229 260.072418,1627.472778 260.071442,1625.360840 
	C260.003632,1475.731079 260.016144,1326.101318 260.035645,1176.471558 
	C260.035767,1175.482422 260.225708,1174.493408 260.391815,1172.871460 
	C262.559143,1171.452393 264.942596,1169.719971 267.480347,1168.254761 
	C393.828033,1095.309204 520.183350,1022.376709 646.582886,949.521118 
	C649.578430,947.794678 653.086121,946.956726 656.986450,946.189514 
z"/>
<path fill="#032B91" opacity="1.000000" stroke="none" 
	d="
M1450.373169,1401.899536 
	C1450.360596,1249.885620 1450.348022,1097.871582 1450.189209,944.926636 
	C1453.032837,945.402832 1456.143188,946.601379 1458.995239,948.247314 
	C1585.869141,1021.468018 1712.721069,1094.726929 1839.570312,1167.990356 
	C1842.154785,1169.483032 1844.678345,1171.081299 1847.622314,1172.868164 
	C1847.622314,1324.114136 1847.622314,1475.337891 1846.799072,1627.392578 
	C1840.327515,1625.492188 1834.538330,1623.014648 1829.060669,1619.975342 
	C1818.299805,1614.004761 1807.708252,1607.728760 1797.053711,1601.566895 
	C1764.803223,1582.915649 1732.567017,1564.239502 1700.304565,1545.608765 
	C1668.041382,1526.977783 1635.746338,1508.401855 1603.478271,1489.779175 
	C1571.210571,1471.156860 1538.987427,1452.456909 1506.689575,1433.887207 
	C1487.973877,1423.126587 1469.148926,1412.555786 1450.373169,1401.899536 
z"/>
<path fill="#1588DB" opacity="1.000000" stroke="none" 
	d="
M1449.725342,1402.198975 
	C1469.148926,1412.555786 1487.973877,1423.126587 1506.689575,1433.887207 
	C1538.987427,1452.456909 1571.210571,1471.156860 1603.478271,1489.779175 
	C1635.746338,1508.401855 1668.041382,1526.977783 1700.304565,1545.608765 
	C1732.567017,1564.239502 1764.803223,1582.915649 1797.053711,1601.566895 
	C1807.708252,1607.728760 1818.299805,1614.004761 1829.060669,1619.975342 
	C1834.538330,1623.014648 1840.327515,1625.492188 1846.692871,1628.354736 
	C1847.321045,1633.333740 1842.819214,1633.752686 1839.957397,1635.417236 
	C1796.197632,1660.868164 1752.349731,1686.167480 1708.509155,1711.479370 
	C1626.308350,1758.938965 1544.099854,1806.385742 1461.890137,1853.830200 
	C1458.178345,1855.972290 1454.422852,1858.038330 1450.545166,1860.220093 
	C1422.502319,1844.038940 1394.822876,1828.076904 1367.152588,1812.099365 
	C1263.899658,1752.478271 1160.650757,1692.850464 1057.388916,1633.244995 
	C1056.260620,1632.593872 1054.979370,1632.207397 1052.957764,1631.342041 
	C1052.145752,1630.986694 1052.349365,1630.488403 1052.349365,1630.488403 
	C1054.771240,1629.476807 1057.339478,1628.718872 1059.594238,1627.417480 
	C1189.438354,1552.473022 1319.256714,1477.483521 1449.725342,1402.198975 
z"/>
<path fill="#042C91" opacity="1.000000" stroke="none" 
	d="
M1051.803467,1629.991089 
	C1052.349365,1630.488403 1052.145752,1630.986694 1052.242798,1631.236084 
	C1040.319946,1638.599731 1028.363525,1645.823975 1016.270325,1652.811157 
	C899.257507,1720.417603 782.222046,1787.984741 665.189758,1855.557617 
	C662.602417,1857.051392 659.975403,1858.476318 657.106567,1860.078735 
	C654.773315,1858.836304 652.419983,1857.672241 650.150818,1856.362183 
	C521.869812,1782.311035 393.595673,1708.247925 265.322784,1634.182617 
	C264.459717,1633.684326 263.622192,1633.141724 262.201294,1632.157837 
	C263.572388,1629.918335 265.269562,1627.717896 267.494476,1626.426758 
	C298.253052,1608.578491 329.074310,1590.838135 359.900208,1573.105957 
	C392.167725,1554.544922 424.492401,1536.082764 456.726410,1517.463501 
	C488.670288,1499.011719 520.490234,1480.345337 552.441467,1461.906372 
	C586.975586,1441.976807 621.598938,1422.201904 656.819519,1402.163330 
	C784.431152,1475.275146 911.407288,1548.581665 1038.378906,1621.896118 
	C1042.695190,1624.388306 1046.965698,1626.959351 1051.803467,1629.991089 
z"/>
<path fill="#1488DB" opacity="1.000000" stroke="none" 
	d="
M1054.385742,715.125977 
	C1053.768555,670.753113 1053.842041,626.758911 1053.849854,582.764771 
	C1053.868408,478.777130 1053.863525,374.789459 1053.826416,270.801819 
	C1053.824951,266.832062 1053.390869,262.862427 1052.672119,258.184570 
	C1055.064209,258.355103 1058.232300,258.728149 1060.777100,260.188019 
	C1101.220337,283.388519 1141.586548,306.722961 1181.964478,330.037354 
	C1268.199585,379.829865 1354.374146,429.727692 1440.766846,479.245270 
	C1448.062134,483.426758 1450.744629,487.794830 1450.727539,496.294434 
	C1450.435669,641.567322 1450.518677,786.841003 1450.513550,932.114502 
	C1450.513550,935.112671 1450.447632,938.110779 1450.230469,942.109497 
	C1412.567627,921.580933 1375.058350,900.101501 1337.611938,878.513062 
	C1243.408325,824.203125 1149.233154,769.844116 1054.385742,715.125977 
z"/>
<path fill="#062D92" opacity="1.000000" stroke="none" 
	d="
M830.000732,1235.425293 
	C816.397339,1235.425293 803.793762,1235.425293 790.514709,1235.425293 
	C790.514709,1136.275513 790.514709,1037.886963 790.514709,939.087219 
	C791.795593,938.834229 793.039612,938.372986 794.283264,938.374084 
	C837.257019,938.412781 880.232971,938.275879 923.203003,938.713135 
	C935.141052,938.834534 947.193665,939.893982 958.964355,941.881348 
	C989.393799,947.018860 1012.870605,970.155029 1018.270813,999.260132 
	C1024.047363,1030.393555 1011.642761,1057.849731 984.057861,1075.006836 
	C983.220581,1075.527588 982.432129,1076.126953 980.926819,1077.170898 
	C982.835022,1078.226807 984.282043,1079.284058 985.898804,1079.884644 
	C1026.616699,1095.007324 1041.334351,1134.813599 1030.773193,1172.549194 
	C1020.255005,1210.131958 992.883179,1232.522339 953.881409,1233.725708 
	C912.942566,1234.988892 871.962463,1234.915039 830.000732,1235.425293 
M863.354065,1185.065552 
	C876.677734,1185.065552 890.003479,1185.211548 903.324463,1185.021973 
	C915.306335,1184.851440 927.335693,1184.887085 939.248535,1183.792114 
	C954.294800,1182.409180 966.250122,1175.331787 970.695496,1160.144897 
	C975.239868,1144.619995 973.833618,1129.675049 961.058167,1117.810425 
	C954.187988,1111.430054 945.661255,1108.302002 936.494324,1108.017578 
	C908.221008,1107.140259 879.934143,1106.695801 851.651123,1106.156250 
	C850.811707,1106.140381 849.956665,1106.937500 849.148071,1107.336182 
	C849.148071,1133.043213 849.148071,1158.526367 849.148071,1185.065063 
	C853.633179,1185.065063 857.549072,1185.065063 863.354065,1185.065552 
M938.120605,1053.776733 
	C938.751465,1053.566040 939.399170,1053.395508 940.010803,1053.138916 
	C956.898743,1046.052368 964.087463,1033.867798 961.858337,1016.125793 
	C959.924072,1000.730591 949.918762,991.700562 931.945679,989.163818 
	C929.971436,988.885132 927.978333,988.571533 925.993042,988.565125 
	C901.032410,988.484131 876.071533,988.450684 851.110779,988.456543 
	C850.568054,988.456665 850.025391,989.065002 849.225464,989.543518 
	C849.225464,1011.506348 849.225464,1033.616089 849.225464,1056.181641 
	C868.826111,1056.181641 887.781250,1056.406128 906.727478,1056.089844 
	C916.665833,1055.924072 926.588440,1054.810547 938.120605,1053.776733 
z"/>
<path fill="#072E93" opacity="1.000000" stroke="none" 
	d="
M1148.071045,1140.838135 
	C1143.355225,1144.264648 1143.377930,1148.522217 1143.394653,1152.973633 
	C1143.483643,1176.638550 1143.435913,1200.303711 1143.435425,1223.968872 
	C1143.435303,1227.267700 1143.435303,1230.566528 1143.435303,1234.649170 
	C1123.727295,1234.649170 1104.624756,1234.649170 1084.835938,1234.649170 
	C1084.835938,1136.230225 1084.835938,1037.816895 1084.835938,938.858154 
	C1103.998657,938.858154 1122.879150,938.858154 1143.188110,938.858154 
	C1143.708008,949.172852 1143.363647,959.705505 1143.421753,970.211426 
	C1143.482666,981.210388 1143.435425,992.209961 1143.435425,1003.209229 
	C1143.435425,1013.875183 1143.435425,1024.541138 1143.435425,1035.207153 
	C1143.435425,1045.760864 1143.435303,1056.314575 1143.435303,1069.075317 
	C1147.127808,1065.298462 1149.406250,1063.122803 1151.511963,1060.791016 
	C1186.358276,1022.202698 1221.272217,983.674438 1255.901611,944.892212 
	C1260.327026,939.936096 1264.836304,938.052612 1271.368286,938.178040 
	C1291.026489,938.555725 1310.696411,938.314270 1330.361816,938.314209 
	C1333.234741,938.314209 1336.107666,938.314209 1341.657593,938.314209 
	C1304.124146,977.874817 1268.279297,1015.655457 1231.729614,1054.179199 
	C1269.993530,1114.129028 1308.184814,1173.964966 1347.419312,1235.435303 
	C1338.091187,1235.435303 1330.886475,1235.435425 1323.681763,1235.435425 
	C1309.016113,1235.435425 1294.335938,1235.053589 1279.691284,1235.607910 
	C1273.081787,1235.858154 1269.597778,1233.604126 1266.381104,1227.937500 
	C1243.363892,1187.389893 1219.995361,1147.041626 1196.723389,1106.638550 
	C1194.944336,1103.549927 1193.049194,1100.528320 1190.679932,1096.599854 
	C1176.256104,1111.563110 1162.424927,1125.911499 1148.071045,1140.838135 
z"/>
<path fill="#1B8CDC" opacity="1.000000" stroke="none" 
	d="
M1336.024414,1292.688232 
	C1336.030273,1328.561157 1336.030273,1363.502441 1336.030273,1399.159668 
	C1328.850586,1399.159668 1322.381836,1399.159668 1314.864502,1399.159668 
	C1314.864502,1373.312012 1314.864502,1347.459229 1314.864502,1321.606323 
	C1314.120361,1321.502686 1313.376099,1321.398926 1312.631958,1321.295288 
	C1306.050537,1347.132812 1299.469116,1372.970337 1292.768066,1399.277222 
	C1285.556274,1399.277222 1278.686157,1399.277222 1270.508667,1399.277222 
	C1263.825073,1373.161499 1257.031494,1346.615845 1250.237915,1320.070312 
	C1249.604614,1320.137207 1248.971191,1320.204224 1248.337891,1320.271240 
	C1248.337891,1346.464478 1248.337891,1372.657837 1248.337891,1399.351318 
	C1241.075928,1399.351318 1234.873291,1399.351318 1227.198120,1399.351318 
	C1227.119385,1362.151733 1227.177124,1325.063721 1227.155273,1287.376953 
	C1239.110107,1287.376953 1249.950806,1287.376953 1261.468506,1287.376953 
	C1267.847534,1311.149536 1274.216553,1334.884766 1281.267090,1361.159912 
	C1286.656860,1347.696655 1288.611694,1335.538574 1291.949219,1323.843018 
	C1295.400513,1311.749146 1298.476074,1299.548096 1301.867432,1286.825928 
	C1312.174072,1286.825928 1321.777588,1286.843628 1331.381226,1286.816406 
	C1334.748413,1286.806885 1336.216431,1288.472778 1336.024414,1292.688232 
z"/>
<path fill="#1B8BDC" opacity="1.000000" stroke="none" 
	d="
M1067.816406,1368.171387 
	C1067.816406,1361.964966 1067.816406,1356.729614 1067.816406,1350.937622 
	C1052.860229,1350.937622 1039.038330,1350.937622 1024.100830,1350.937622 
	C1024.100830,1366.811523 1024.100830,1382.601807 1024.100830,1399.122803 
	C1015.903320,1399.122803 1008.793457,1399.122803 1000.977905,1399.122803 
	C1000.977905,1362.299194 1000.977905,1325.491211 1000.977905,1288.141113 
	C1008.082947,1285.549805 1015.458740,1286.995728 1023.587769,1287.322510 
	C1023.587769,1302.088013 1023.587769,1315.981079 1023.587769,1330.643799 
	C1038.408569,1330.643799 1052.471191,1330.643799 1067.640381,1330.643799 
	C1067.640381,1316.209961 1067.640381,1302.075439 1067.640381,1287.380005 
	C1075.574585,1287.380005 1082.406372,1287.380005 1089.906494,1287.380005 
	C1089.906494,1324.798950 1089.906494,1361.838501 1089.906494,1399.340332 
	C1082.519043,1399.340332 1075.713989,1399.340332 1067.816528,1399.340332 
	C1067.816528,1388.939453 1067.816528,1379.040894 1067.816406,1368.171387 
z"/>
<path fill="#1E8DDC" opacity="1.000000" stroke="none" 
	d="
M939.393372,1289.890503 
	C957.501770,1300.222656 963.962219,1320.454102 955.267883,1338.325317 
	C950.445190,1348.238403 942.493164,1354.522583 931.460266,1356.002197 
	C924.231201,1356.971436 916.887146,1357.145020 909.585876,1357.489136 
	C905.323608,1357.690308 901.044067,1357.525757 895.542603,1357.525757 
	C895.542603,1371.700317 895.542603,1385.139526 895.542603,1399.220947 
	C887.239319,1399.220947 880.163269,1399.220947 872.517212,1399.220947 
	C872.517212,1362.020508 872.517212,1325.207642 872.517212,1288.411133 
	C873.059631,1287.978516 873.572815,1287.213013 874.075378,1287.219849 
	C894.015320,1287.493530 913.954895,1287.805786 933.892029,1288.230957 
	C935.488647,1288.265015 937.067322,1289.140381 939.393372,1289.890503 
M930.122986,1333.047241 
	C938.955627,1320.078613 934.184143,1308.431274 918.859741,1306.723877 
	C911.428162,1305.895874 903.828003,1306.580933 895.487122,1306.580933 
	C895.260071,1317.354980 894.596436,1327.355225 895.999695,1338.233887 
	C907.662598,1337.023682 918.747559,1340.307251 930.122986,1333.047241 
z"/>
<path fill="#1B8CDC" opacity="1.000000" stroke="none" 
	d="
M1116.901123,1311.192139 
	C1130.061279,1287.365967 1154.951660,1281.269775 1177.551270,1286.939453 
	C1193.316650,1290.894531 1203.331299,1301.213257 1207.702759,1318.126831 
	C1200.441162,1319.968872 1193.476196,1321.735718 1186.028564,1323.625000 
	C1185.144775,1321.953247 1184.333008,1320.612427 1183.701294,1319.191650 
	C1179.246826,1309.175659 1171.256104,1304.714355 1160.620850,1304.982666 
	C1150.054199,1305.249390 1141.692749,1309.994751 1137.797729,1319.935059 
	C1131.611572,1335.722168 1131.646606,1351.983887 1138.193848,1367.625244 
	C1142.281494,1377.390747 1150.730835,1382.042480 1161.396240,1381.901001 
	C1171.398315,1381.768433 1178.327637,1376.712402 1182.518921,1367.774414 
	C1183.900757,1364.827271 1185.105225,1361.796753 1186.607178,1358.300537 
	C1193.901367,1360.626465 1200.741577,1362.807495 1207.485229,1364.957886 
	C1202.354248,1391.323242 1180.061890,1405.847046 1152.784424,1401.293457 
	C1129.337402,1397.379272 1113.080078,1379.867065 1110.405762,1354.781128 
	C1108.836914,1340.063477 1109.837524,1325.488403 1116.901123,1311.192139 
z"/>
<path fill="#1C8CDC" opacity="1.000000" stroke="none" 
	d="
M801.653198,1328.096191 
	C801.653137,1320.542358 801.653137,1313.971191 801.653137,1306.362061 
	C790.123291,1306.362061 779.638672,1306.362061 768.580383,1306.362061 
	C768.580383,1299.511230 768.580383,1293.724243 768.580383,1287.356201 
	C798.079529,1287.356201 827.226318,1287.356201 857.127441,1287.356201 
	C857.127441,1293.306274 857.127441,1299.060425 857.127441,1305.859009 
	C846.634827,1305.859009 836.152039,1305.859009 824.693481,1305.859009 
	C824.693481,1337.311768 824.693481,1367.769531 824.693481,1399.049683 
	C816.945557,1399.049683 810.165710,1399.049683 801.862183,1399.049683 
	C801.412231,1387.658936 801.723022,1375.829224 801.665710,1364.021729 
	C801.609131,1352.374390 801.653259,1340.726440 801.653198,1328.096191 
z"/>
<path fill="#218FDD" opacity="1.000000" stroke="none" 
	d="
M958.816650,1399.623779 
	C957.195068,1392.732178 956.457642,1386.044922 955.635071,1378.585693 
	C963.613892,1378.585693 970.099121,1378.585693 977.409729,1378.585693 
	C977.409729,1385.207886 977.409729,1391.934326 977.409729,1399.828125 
	C971.459412,1399.828125 965.580139,1399.828125 958.816650,1399.623779 
z"/>
<path fill="#FAFBFD" opacity="1.000000" stroke="none" 
	d="
M862.409546,1185.065308 
	C857.549072,1185.065063 853.633179,1185.065063 849.148071,1185.065063 
	C849.148071,1158.526367 849.148071,1133.043213 849.148071,1107.336182 
	C849.956665,1106.937500 850.811707,1106.140381 851.651123,1106.156250 
	C879.934143,1106.695801 908.221008,1107.140259 936.494324,1108.017578 
	C945.661255,1108.302002 954.187988,1111.430054 961.058167,1117.810425 
	C973.833618,1129.675049 975.239868,1144.619995 970.695496,1160.144897 
	C966.250122,1175.331787 954.294800,1182.409180 939.248535,1183.792114 
	C927.335693,1184.887085 915.306335,1184.851440 903.324463,1185.021973 
	C890.003479,1185.211548 876.677734,1185.065552 862.409546,1185.065308 
z"/>
<path fill="#FBFBFD" opacity="1.000000" stroke="none" 
	d="
M937.319336,1053.950928 
	C926.588440,1054.810547 916.665833,1055.924072 906.727478,1056.089844 
	C887.781250,1056.406128 868.826111,1056.181641 849.225464,1056.181641 
	C849.225464,1033.616089 849.225464,1011.506348 849.225464,989.543518 
	C850.025391,989.065002 850.568054,988.456665 851.110779,988.456543 
	C876.071533,988.450684 901.032410,988.484131 925.993042,988.565125 
	C927.978333,988.571533 929.971436,988.885132 931.945679,989.163818 
	C949.918762,991.700562 959.924072,1000.730591 961.858337,1016.125793 
	C964.087463,1033.867798 956.898743,1046.052368 940.010803,1053.138916 
	C939.399170,1053.395508 938.751465,1053.566040 937.319336,1053.950928 
z"/>
<path fill="#F8FCFE" opacity="1.000000" stroke="none" 
	d="
M929.497498,1333.559326 
	C918.747559,1340.307251 907.662598,1337.023682 895.999695,1338.233887 
	C894.596436,1327.355225 895.260071,1317.354980 895.487122,1306.580933 
	C903.828003,1306.580933 911.428162,1305.895874 918.859741,1306.723877 
	C934.184143,1308.431274 938.955627,1320.078613 929.497498,1333.559326 
z"/>
</svg>